<svg width="376" height="72" viewBox="-1 -1 376 72" fill="none" xmlns="http://www.w3.org/2000/svg">
    <defs>
        <linearGradient id="gradient" x1="0" x2="0" y1="1" y2="0">
                <stop offset="5%" stop-color="#c0c4c0" />
                <stop offset="95%" stop-color="#fff4" />
        </linearGradient>
    </defs>
    <path fill="url(#gradient)" stroke="#fff4" stroke-width="2" d="M37 8H18.5C12.701 8 8 12.701 8 18.5C8 24.299 12.701 29 18.5 29H37V37H18.5C14.6002 37 10.9832 35.7918 8 33.7314V70H0V17H0.0605469C0.8241 7.48425 8.78773 0 18.5 0H37V8ZM60.5 18C70.7173 18 79 26.2827 79 36.5V51.5C79 61.7173 70.7173 70 60.5 70C50.2827 70 42 61.7173 42 51.5V36.5C42 26.2827 50.2827 18 60.5 18ZM107 39H121V47H107V70H99V47H84V39H99V17H107V39ZM144.5 18C154.717 18 163 26.2827 163 36.5V51.5C163 61.7173 154.717 70 144.5 70C134.283 70 126 61.7173 126 51.5V36.5C126 26.2827 134.283 18 144.5 18ZM186.5 18C196.717 18 205 26.2827 205 36.5V70H197V36.5C197 30.701 192.299 26 186.5 26C180.701 26 176 30.701 176 36.5V70H168V36.5C168 26.2827 176.283 18 186.5 18ZM289 8H273C265.82 8 260 13.8203 260 21V49C260 56.1797 265.82 62 273 62H289V70H273C261.402 70 252 60.598 252 49V21C252 9.40202 261.402 3.86555e-07 273 0H289V8ZM310 21C321.598 21 331 30.402 331 42V48C331 59.598 321.598 69 310 69H294V61H310C317.18 61 323 55.1797 323 48V42C323 34.8203 317.18 29 310 29V21ZM352 21C363.598 21 373 30.402 373 42V48C373 59.598 363.598 69 352 69H336V61H352C359.18 61 365 55.1797 365 48V42C365 34.8203 359.18 29 352 29V21ZM60.5 26C54.701 26 50 30.701 50 36.5V51.5C50 57.299 54.701 62 60.5 62C66.299 62 71 57.299 71 51.5V36.5C71 30.701 66.299 26 60.5 26ZM144.5 26C138.701 26 134 30.701 134 36.5V51.5C134 57.299 138.701 62 144.5 62C150.299 62 155 57.299 155 51.5V36.5C155 30.701 150.299 26 144.5 26ZM331 8H315C307.82 8 302 13.8203 302 21V27C302 34.1797 307.82 40 315 40V48C303.402 48 294 38.598 294 27V21C294 9.40202 303.402 3.86555e-07 315 0H331V8ZM373 8H357C349.82 8 344 13.8203 344 21V27C344 34.1797 349.82 40 357 40V48C345.402 48 336 38.598 336 27V21C336 9.40202 345.402 3.86555e-07 357 0H373V8Z"/>
</svg>
