<svg width="145" height="40" viewBox="0 0 145 40" version="1.1" xmlns="http://www.w3.org/2000/svg" xmlns:xlink="http://www.w3.org/1999/xlink"><path fill="#fff" d="M138.1,13.1 L132.0,22.6 L131.3,13.1 L122.5,13.1 C123.3,10.3 124.0,8.1 124.0,8.1 L124.3,7 L117.6,7 L117.3,8.1 L115.8,13.1 L108.6,13.1 C102.7,13.1 99.4,14.8 98.0,18 C97.2,15 94.6,13.1 90.5,13.1 C87.2,13.1 84.1,14.3 81.6,16.5 C80.4,14.4 78.1,13.1 74.8,13.1 C71.2,13.1 67.9,14.5 65.4,16.9 C64.3,14.6 61.8,13.1 58.3,13.1 C57.1,13.1 55.9,13.3 54.8,13.6 L55.3,11.7 C55.4,11.7 55.4,11.7 55.4,11.6 L56.7,7 L50.0,7 L45.7,21.7 C45.6,22 45.5,22.3 45.4,22.6 C45.2,23.2 45.1,23.9 45.0,24.6 C44.5,28.7 46.3,31.8 51.3,32 C51.8,32 52.3,32.1 52.8,32.1 C56.2,32 59.6,30.7 62.1,28.3 C63.1,30.6 65.5,32.1 69.2,32.1 C72.5,32 75.6,30.8 78.1,28.7 C79.2,30.8 81.5,32.1 85.0,32.1 L101.9,32.1 C107.1,32.1 110.0,31 111.6,28.8 C111.6,30.9 112.8,32.1 115.9,32.1 C118.4,32.1 121.7,31.5 126.3,30.4 L119.6,39.9 L126.4,39.9 L144.8,13.1 L138.1,13.1 Z M58.9,22.6 C58.3,24.7 56.2,26.5 54.4,26.5 C52.5,26.5 51.5,24.7 52.1,22.6 C52.8,20.4 54.8,18.7 56.6,18.7 C58.5,18.7 59.5,20.4 58.9,22.6 Z M75.4,22.6 C74.7,24.7 72.7,26.5 70.9,26.5 C69.0,26.5 68.0,24.7 68.6,22.6 C69.3,20.4 71.3,18.7 73.2,18.7 C75.0,18.7 76.0,20.4 75.4,22.6 Z M84.4,22.6 C85.0,20.4 87.1,18.7 88.9,18.7 C90.7,18.7 91.8,20.4 91.1,22.6 C90.5,24.7 88.5,26.4 86.7,26.5 L86.6,26.5 C84.8,26.4 83.8,24.7 84.4,22.6 Z M106.1,25.8 C105.7,26.6 103.1,26.5 102.4,26.5 L95.9,26.5 C96.8,25.3 97.4,24 97.8,22.6 C97.9,22.4 97.9,22.3 98.0,22.2 C98.7,23.2 100.2,24.1 103.1,24.6 C105.8,25.2 106.3,25 106.1,25.8 Z M112.7,23.7 C112.2,21.4 109.7,20.6 106.2,20.2 C104.7,20 103.9,19.9 104.1,19.3 C104.2,18.8 105.0,18.7 106.5,18.7 L114.2,18.7 L112.7,23.7 Z M119.4,23.7 C119.4,23.7 120.1,21.4 120.9,18.7 L125.2,18.7 L125.9,25.8 C118.8,27.3 118.7,26.9 119.4,23.7 L119.4,23.7 Z" fill-rule="nonzero"></path><path d="M1.0,23.8 L7.8,0 L18.2,0 L16.1,7.4 C16.0,7.4 16.0,7.4 16.0,7.5 L10.5,27.1 L15.6,27.1 C13.5,32.5 11.8,36.8 10.6,40 C1.1,39.8 -1.5,32.9 0.7,24.7 L1.0,23.8 Z M10.6,40 L23.2,21.6 L17.8,21.6 L22.5,9.8 C30.4,10.6 34.1,17 31.9,24.7 C29.6,33 20.1,40 10.8,40 L10.6,40 Z" fill="#fff"></path></svg>
