<svg width="200" height="40" viewBox="0 0 200 40" fill="none" xmlns="http://www.w3.org/2000/svg"><path d="M53.9 10.1C53.9 9 54.6 8.3 55.8 8.3H61.5C66.7 8.3 70.2 11.2 70.2 15.4C70.2 19.5 66.7 22.5 61.5 22.5H60.7C58.8 22.5 57.7 23.5 57.7 25.2V29.9C57.7 31.2 57 32 55.8 32.0C54.6 32 53.9 31.2 53.9 29.9V10.1ZM57.7 16.0C57.7 18.1 58.8 19.1 60.8 19.1H61.3C64.1 19.1 66.2 17.9 66.2 15.4C66.2 12.8 64.2 11.7 61.3 11.7H60.8C58.8 11.7 57.7 12.7 57.7 14.7V16.0H57.7ZM70.2 30.2C70.2 31.3 71 32 72.2 32.0C72.9 32 73.6 31.5 74 30.5L74.7 28.6C75.3 27.1 76.3 26.4 77.4 26.4H83.7C84.7 26.4 85.7 27.1 86.3 28.6L87 30.5C87.4 31.5 88.1 32 88.9 32.0C90 32 90.8 31.3 90.8 30.2C90.8 29.9 90.7 29.5 90.6 29.2L83.1 9.6C82.6 8.4 81.6 7.8 80.5 7.8C79.5 7.8 78.4 8.4 78 9.6L70.5 29.2C70.3 29.5 70.2 29.9 70.2 30.2ZM77.6 21.3C77.6 21 77.7 20.6 77.8 20.1L79.2 16.2C79.5 15.4 80 15.1 80.5 15.1C81 15.1 81.5 15.4 81.8 16.2L83.2 20.1C83.4 20.6 83.5 21 83.5 21.3C83.5 22.3 82.9 23 81.4 23.0H79.6C78.1 23 77.6 22.3 77.6 21.3ZM89.5 10.1C89.5 9.1 90.3 8.4 91.5 8.4H106.8C108 8.4 108.8 9.1 108.8 10.1C108.8 11.2 108 11.9 106.8 11.9H104.2C102.2 11.9 101.1 12.9 101.1 15.3V29.8C101.1 31.2 100.3 32 99.1 32.0C98 32 97.2 31.2 97.2 29.8V15.3C97.2 12.9 96.1 11.9 94.1 11.9H91.5C90.3 11.9 89.5 11.2 89.5 10.1ZM112.3 29.9C112.3 31.2 113.1 32 114.3 32.0C115.4 32 116.2 31.2 116.2 29.9V24.6C116.2 23.1 117 22.5 118.1 22.5H118.4C119.1 22.5 119.8 22.9 120.2 23.5L125.2 30.9C125.7 31.6 126.3 32 127 32.0C128 32 128.8 31.2 128.8 30.2C128.8 29.8 128.7 29.4 128.4 28.9L125 24.2C124.6 23.7 124.5 23.2 124.5 22.8C124.5 22 125.2 21.4 126.1 20.8C127.6 19.6 129.3 18.1 129.3 15.2C129.3 11.1 126.1 8.3 120.9 8.3H114.2C113 8.3 112.3 9 112.3 10.1V29.9H112.3ZM116.2 15.7V14.7C116.2 12.5 117.3 11.7 119 11.7H120.7C123.5 11.7 125.3 12.7 125.3 15.2C125.3 17.6 123.4 18.7 120.6 18.7H119.0C117.3 18.7 116.2 17.8 116.2 15.7ZM134.2 29.8V10.1C134.2 9 135 8.3 136.2 8.3H148.7C149.9 8.3 150.6 9 150.6 10.1C150.6 11.1 149.9 11.8 148.7 11.8H140.8C139.2 11.8 138.1 12.7 138.1 14.5V15.2C138.1 16.9 139.2 17.9 140.8 17.9H146.9C148.1 17.9 148.8 18.6 148.8 19.6C148.8 20.6 148.1 21.3 146.9 21.3H141.0C139.5 21.3 138.1 22.3 138.1 24.2V25.2C138.1 27.1 139.5 28.1 141 28.1H148.7C149.9 28.1 150.6 28.8 150.6 29.8C150.6 30.8 149.9 31.5 148.7 31.5H136.2C135 31.5 134.2 30.8 134.2 29.8ZM152.9 19.9C152.9 12.8 158.3 7.8 164.6 7.8C170.9 7.8 176.2 12.8 176.2 19.9C176.2 27.1 170.9 32 164.6 32.0C158.3 32 152.9 27.1 152.9 19.9ZM157.3 19.9C157.3 25 160.3 28.2 164.6 28.2C168.9 28.2 171.9 25 171.9 19.9C171.9 14.9 168.9 11.7 164.6 11.7C160.3 11.7 157.3 14.9 157.3 19.9ZM180.8 29.9C180.8 31.2 181.6 32 182.8 32.0C183.9 32 184.7 31.2 184.7 29.9V19.7C184.7 18.5 185.4 17.9 186.2 17.9C186.8 17.9 187.3 18.2 187.6 18.8L194 29.5C194.9 30.9 195.6 32 197.3 32.0C198.8 32 200 30.9 200 29.1V10.0C200 8.7 199.2 7.8 198 7.8C196.9 7.8 196.1 8.7 196.1 10.0V20.1C196.1 21.3 195.4 21.9 194.6 21.9C194 21.9 193.5 21.6 193.2 21.0L186.8 10.4C185.9 8.9 185.1 7.8 183.5 7.8C182 7.8 180.8 9 180.8 10.8V29.9Z M36.5 12.0C36.5 6.9 32.5 2.7 27.9 1.2C22.1 -0.6 14.4 -0.3 8.9 2.2C2.1 5.3 0 12.3 0 19.2C-0 24.9 0.5 39.8 8.9 39.9C15.2 40 16.1 31.9 19 28.0C21.1 25.3 23.8 24.5 27.1 23.7C32.7 22.3 36.5 17.9 36.5 12Z" fill="#fff"/>
</svg>
